PathFileType	4	(X/Y/Z)	C:/Users/opensim2020/Desktop/walking_exp_matlab/subject06_walking12_straigt_03.trc	
DataRate	CameraRate	NumFrames	NumMarkers	Units	OrigDataRate	OrigDataStartFrame	OrigNumFrames	
100.00	100.00	7	48	mm	100.00	2187	184	
Frame#	Time	LFHD			RFHD			LBHD			RBHD			C7			T10			CLAV			STRN			RBAK			LSHO			LUPA			LELB			LFRM			LWRA			LWRB			LFIN			RSHO			RUPA			RELB			RFRM			RWRA			RWRB			RFIN			LASI			RASI			LPSI			RPSI			LTHI			LKNE			LTIB			LANK			LHEE			LTOE			RTHI			RKNE			RTIB			RANK			RHEE			RTOE			*39			*40			*41			*42			*43			*44			*45			*46			*47			
		X1	Y1	Z1	X2	Y2	Z2	X3	Y3	Z3	X4	Y4	Z4	X5	Y5	Z5	X6	Y6	Z6	X7	Y7	Z7	X8	Y8	Z8	X9	Y9	Z9	X10	Y10	Z10	X11	Y11	Z11	X12	Y12	Z12	X13	Y13	Z13	X14	Y14	Z14	X15	Y15	Z15	X16	Y16	Z16	X17	Y17	Z17	X18	Y18	Z18	X19	Y19	Z19	X20	Y20	Z20	X21	Y21	Z21	X22	Y22	Z22	X23	Y23	Z23	X24	Y24	Z24	X25	Y25	Z25	X26	Y26	Z26	X27	Y27	Z27	X28	Y28	Z28	X29	Y29	Z29	X30	Y30	Z30	X31	Y31	Z31	X32	Y32	Z32	X33	Y33	Z33	X34	Y34	Z34	X35	Y35	Z35	X36	Y36	Z36	X37	Y37	Z37	X38	Y38	Z38	X39	Y39	Z39	X40	Y40	Z40	X41	Y41	Z41	X42	Y42	Z42	X43	Y43	Z43	X44	Y44	Z44	X45	Y45	Z45	X46	Y46	Z46	X47	Y47	Z47	X48	Y48	Z48	

116	1.150	-1084.95007	360.97134	1666.53125	-954.00012	348.55695	1653.08838	-1099.92712	228.54015	1614.39380	-971.38269	217.34494	1605.27075	-1043.93848	221.05499	1455.27112	-1040.72571	178.57396	1127.72192	-1037.16724	329.66660	1375.76147	-1045.35547	365.96725	1200.38232	-970.11267	141.12938	1286.47473	-1200.30627	284.63412	1410.76843	-1280.39722	305.08978	1212.52112	-1299.87158	317.34399	1101.74194	-1325.48669	375.44711	963.32581	-1281.24402	455.13342	862.38416	-1326.34619	402.99176	847.03430	-1327.96411	462.87677	780.12213	-878.14618	276.63297	1407.72278	-796.92944	218.86061	1211.50671	-788.54614	218.08118	1088.33337	-775.86194	223.51343	967.42908	-813.40558	268.95474	824.40472	-771.50629	216.95744	829.54944	-772.56146	247.22301	750.74091	-1145.87830	357.31271	966.41351	-925.91650	350.35355	969.84912	-1121.45789	198.63153	995.93671	-953.29382	198.22302	991.90979	-1198.93567	278.16385	652.19568	-1173.93518	267.46320	488.13922	-1152.06152	219.78539	234.64395	-1097.67200	216.09866	64.18317	-1049.76648	178.75432	51.94832	-1101.37573	361.55392	33.78602	-853.79388	374.83817	649.92273	-867.82263	425.45844	533.87152	-877.13654	304.67630	304.36139	-924.49078	214.17720	143.55318	-973.94287	172.85732	134.01796	-910.57001	336.46545	53.38281	-1034.95972	256.03900	1705.46851																								 
117	1.160	-1085.11914	369.91074	1666.37793	-954.18250	357.23993	1652.67065	-1100.28406	237.45239	1614.23340	-971.72620	226.15549	1604.89417	-1044.42517	229.90692	1455.04810	-1041.40320	187.23781	1127.53516	-1037.65930	338.59061	1375.51538	-1046.04443	374.87915	1200.11572	-971.00232	149.99529	1286.21924	-1200.73853	293.62399	1410.77515	-1281.34399	316.74902	1213.21191	-1301.15564	330.99240	1102.49841	-1327.11121	392.93210	966.03046	-1282.63379	475.70828	867.60199	-1327.68066	424.11697	850.57916	-1329.11414	485.96774	785.44757	-878.63129	285.43423	1407.37280	-797.59155	225.91992	1211.70886	-789.35480	223.69647	1088.44482	-776.77954	228.06995	967.45184	-815.04688	271.17896	823.79877	-772.66559	220.12381	829.64722	-774.07202	248.85747	750.37433	-1147.04822	365.65952	965.75671	-926.70691	359.35968	969.72711	-1121.87134	206.76758	995.51404	-953.63397	206.99823	991.80988	-1198.89661	285.38754	651.63019	-1173.88208	273.76776	487.57977	-1151.98096	223.08885	234.51334	-1097.34534	216.68373	64.30724	-1049.43738	178.65884	52.47926	-1101.34021	361.78516	33.69698	-854.77374	386.08536	650.89435	-869.82782	436.76669	534.83838	-877.86584	324.29407	299.81509	-924.25208	242.11888	134.34090	-973.61469	200.88910	122.42266	-910.26782	368.97330	50.85231	-1035.21289	264.86035	1705.27417																								 
118	1.170	-1085.24841	378.83688	1666.13794	-954.33679	366.04437	1652.27966	-1100.61633	246.42409	1614.01318	-972.10547	234.97891	1604.54272	-1044.91760	238.83881	1454.75427	-1042.04297	196.07774	1127.22607	-1038.10071	347.49493	1375.19702	-1046.71069	383.75519	1199.76672	-971.81738	158.92892	1285.79895	-1201.17200	302.57950	1410.76062	-1282.07849	328.09943	1213.77661	-1302.02551	344.15143	1103.28162	-1328.09106	409.63852	968.49799	-1284.03271	495.85257	873.02985	-1328.80139	444.76117	854.26556	-1330.03442	508.71646	791.09406	-879.10297	294.29681	1406.90613	-797.98218	233.29149	1211.61646	-789.99878	229.78188	1088.48206	-777.63782	232.79123	967.40631	-816.59924	273.69180	823.16907	-773.30774	223.10207	829.76874	-775.43658	250.92888	749.94489	-1147.53320	373.47690	964.88116	-927.40820	368.40021	969.57709	-1122.22437	215.04913	994.92859	-953.95880	215.80219	991.54462	-1198.86243	292.52612	650.95923	-1173.77039	280.28281	486.98138	-1151.91016	226.23715	234.49733	-1097.09839	217.26378	64.47192	-1049.22021	179.27232	52.73119	-1101.30505	361.99295	33.61828	-855.91827	396.58664	651.42267	-871.71497	447.33359	535.33521	-878.42560	343.70810	295.06949	-923.84686	270.35962	125.17539	-973.06836	229.62097	110.95428	-909.74915	401.63071	48.75986	-1035.39551	273.79471	1704.88989																								 
119	1.180	-1085.24072	387.78622	1665.81421	-954.42950	374.92105	1651.82019	-1100.89294	255.34688	1613.66516	-972.37067	243.77911	1604.04016	-1045.28809	247.76512	1454.31042	-1042.53870	204.78796	1126.82678	-1038.51465	356.49673	1374.81030	-1047.31689	392.64444	1199.32727	-972.53217	167.95076	1285.29382	-1201.61414	311.53772	1410.59570	-1282.94751	338.97256	1214.12000	-1303.16992	356.95169	1104.01416	-1329.24109	426.11407	971.07086	-1285.19580	515.65155	878.68561	-1329.62769	464.96835	858.09930	-1330.83655	531.04865	797.01740	-879.47412	303.17453	1406.34656	-798.38727	240.59827	1211.67810	-790.56964	235.98845	1088.40955	-778.41260	237.70271	967.33167	-818.10834	276.50150	822.55310	-774.21454	226.98215	829.77576	-776.72876	253.28418	749.53046	-1148.46509	381.92322	964.14856	-928.01318	377.17377	969.17102	-1122.51782	222.74449	994.26294	-954.17834	224.51714	991.14471	-1198.72449	300.00055	650.25269	-1173.62317	286.76514	486.35590	-1151.89417	229.35654	234.60664	-1096.84668	217.87141	64.65710	-1048.92896	179.42393	53.20665	-1101.32971	362.28909	33.72102	-856.82501	406.55017	651.53998	-873.48590	457.14288	535.50580	-878.90466	363.21542	290.24371	-923.32434	299.15021	116.31687	-972.41901	259.09735	99.83346	-909.16766	434.23825	46.96347	-1035.53271	282.61737	1704.54150																								 
120	1.190	-1085.26489	396.69235	1665.40161	-954.49298	383.73685	1651.16455	-1101.06665	264.37244	1613.21838	-972.63947	252.61667	1603.48730	-1045.68359	256.83664	1453.92578	-1042.92627	213.51236	1126.34961	-1038.92395	365.51453	1374.28137	-1047.93506	401.50311	1198.72498	-973.07428	176.79897	1284.95581	-1202.03052	320.49237	1410.43103	-1283.78125	349.47546	1214.42114	-1304.31848	369.25186	1104.62561	-1330.19348	442.21655	973.66608	-1286.15808	534.90161	884.41180	-1330.06372	484.57544	861.90405	-1331.56555	552.77997	803.23779	-879.79211	312.14322	1405.68469	-798.97906	247.77368	1211.62708	-791.08521	242.29863	1088.30640	-779.21375	242.44963	967.20587	-819.43835	279.64044	821.97076	-774.62451	230.40285	829.79736	-777.91351	256.08209	749.18286	-1149.05908	390.28781	963.38568	-928.53973	386.14944	968.72449	-1122.59570	231.44278	993.60785	-954.32233	233.34848	990.59961	-1198.44666	307.50677	649.50153	-1173.39282	293.27936	485.70001	-1151.92725	232.33727	234.66481	-1096.54773	218.45709	64.90229	-1048.58545	179.57837	53.74568	-1101.21301	362.56305	33.66539	-857.64258	415.90015	651.16681	-875.11212	466.37659	535.23303	-879.25140	382.64813	285.38190	-922.69489	328.33636	107.94072	-971.84595	289.32385	89.38400	-908.60486	466.94107	45.52742	-1035.62646	291.57208	1704.02808																								 
121	1.200	-1085.09253	405.64291	1665.24902	-954.49316	392.64090	1650.49536	-1101.23535	273.35492	1612.65955	-972.77362	261.48395	1602.73938	-1045.96985	265.91385	1453.37781	-1043.23486	222.27505	1125.74414	-1039.22827	374.51862	1373.68774	-1048.47021	410.39661	1198.10742	-973.67249	185.77409	1284.37695	-1202.40015	329.51059	1410.15186	-1284.23303	359.89838	1214.46118	-1305.05798	381.61920	1105.13464	-1330.94592	457.94067	976.19055	-1286.85254	553.70319	890.23767	-1330.27124	503.71475	865.78607	-1332.10571	573.88678	809.47162	-880.10242	321.18066	1404.94275	-799.34076	255.17339	1211.44531	-791.58185	248.76157	1088.15625	-779.81641	247.77924	967.03357	-820.65289	283.06686	821.33099	-775.17120	234.59656	829.82416	-778.83051	259.39661	748.75006	-1149.23242	398.35895	962.50604	-929.07672	395.11456	968.30627	-1122.74597	239.40250	992.82269	-954.24561	241.92430	990.01898	-1198.08069	315.02768	648.70117	-1172.95691	299.86816	484.95288	-1151.79456	235.56065	234.55229	-1096.26514	219.13518	65.11322	-1048.35864	179.94011	54.28846	-1101.05115	362.88751	33.57659	-858.33923	424.62457	650.40283	-876.73712	474.58951	534.57074	-879.53265	402.04733	280.67789	-921.98004	357.91302	100.13824	-970.21277	318.82983	79.84576	-908.08014	499.52267	44.46497	-1035.64587	300.44925	1703.40784																								 
122	1.210	-1085.06970	414.64133	1664.59778	-954.45355	401.50790	1649.70874	-1101.32300	282.38251	1611.96667	-972.88452	270.48373	1601.92029	-1046.25134	275.02994	1452.68127	-1043.44397	231.02693	1125.05371	-1039.53125	383.55890	1372.99390	-1049.00562	419.35110	1197.41370	-974.20441	194.78909	1283.67090	-1202.62769	338.53055	1409.71045	-1285.08557	370.25650	1214.63806	-1305.90210	393.55911	1105.60779	-1331.52539	473.32309	978.67426	-1287.51221	571.97705	896.17230	-1330.24341	522.41864	869.68420	-1332.47791	594.43408	815.89038	-880.38068	330.24509	1404.13794	-799.75250	262.69281	1211.23035	-791.99512	255.42995	1087.96545	-780.34167	253.30052	966.78180	-821.60565	286.84879	820.74316	-775.64001	238.90907	829.73657	-779.89783	262.40030	748.45392	-1149.81787	407.17496	961.68689	-929.35742	404.11035	967.73273	-1122.80188	247.91624	991.88739	-954.33722	250.86624	989.22284	-1197.69727	322.64926	647.82147	-1172.54187	306.42496	484.20123	-1151.54065	238.88841	234.47009	-1095.98022	219.76463	65.36314	-1048.11987	180.34802	54.85350	-1101.01843	363.32413	33.67720	-859.04053	432.63351	649.20795	-878.15625	482.64020	533.27197	-879.82379	421.31564	276.15533	-921.14703	387.64896	93.06374	-969.81946	350.35043	70.46920	-907.63245	532.00690	43.94630	-1035.64941	309.38254	1702.69641																								 
